<svg width="125" height="36" viewBox="0 0 125 36" fill="none" xmlns="http://www.w3.org/2000/svg">
<g clip-path="url(#clip0_50_2)">
<g clip-path="url(#clip1_50_2)">
<path d="M27.8306 9.91548L14.6793 2.32174C14.593 2.27466 14.4963 2.25 14.398 2.25C14.2998 2.25 14.2032 2.27466 14.1169 2.32174L0.965577 9.91548C0.879874 9.9652 0.808765 10.0366 0.759396 10.1225C0.710026 10.2084 0.684136 10.3058 0.684327 10.4049V25.5924C0.684136 25.6914 0.710026 25.7888 0.759396 25.8748C0.808765 25.9607 0.879874 26.032 0.965577 26.0818L14.1169 33.6755C14.2028 33.7235 14.2996 33.7486 14.398 33.7486C14.4966 33.7486 14.5934 33.7235 14.6793 33.6755L27.8306 26.0818C27.9163 26.032 27.9874 25.9607 28.0368 25.8748C28.0861 25.7888 28.112 25.6914 28.1119 25.5924V10.4049C28.112 10.3058 28.0861 10.2084 28.0368 10.1225C27.9874 10.0366 27.9163 9.9652 27.8306 9.91548ZM25.2993 23.9668C25.2996 24.0658 25.2736 24.1632 25.2243 24.2491C25.1749 24.335 25.1038 24.4064 25.018 24.4561L14.6793 30.4242C14.5946 30.4758 14.4973 30.503 14.398 30.503C14.2989 30.503 14.2016 30.4758 14.1169 30.4242L3.77808 24.4561C3.69238 24.4064 3.62126 24.335 3.5719 24.2491C3.52253 24.1632 3.49663 24.0658 3.49682 23.9668V12.0305C3.49664 11.9314 3.52253 11.834 3.57191 11.7481C3.62128 11.6622 3.69238 11.5908 3.77808 11.5411L14.1169 5.57298C14.2022 5.52325 14.2993 5.49706 14.398 5.49706C14.4969 5.49706 14.594 5.52325 14.6793 5.57298L25.018 11.5411C25.1038 11.5908 25.1749 11.6622 25.2243 11.7481C25.2736 11.834 25.2996 11.9314 25.2993 12.0305V23.9668ZM4.62182 12.3511V14.8711H6.42182L7.91245 13.4142C7.96404 13.3624 8.02541 13.3212 8.09299 13.2932C8.16058 13.2653 8.23304 13.2509 8.30621 13.2511H10.365C10.5141 13.2511 10.6572 13.3104 10.7627 13.4159C10.8682 13.5214 10.9275 13.6644 10.9275 13.8136C10.9275 13.9628 10.8682 14.1059 10.7627 14.2114C10.6572 14.3168 10.5141 14.3761 10.365 14.3761H8.53682L7.04621 15.833C6.99461 15.8849 6.93325 15.9259 6.86567 15.954C6.79807 15.982 6.7256 15.9962 6.65245 15.9961H4.62182V17.4361H6.99558C7.14476 17.4361 7.28784 17.4954 7.39333 17.6009C7.49881 17.7064 7.55808 17.8494 7.55808 17.9986C7.55808 18.1478 7.49881 18.2909 7.39333 18.3964C7.28784 18.5018 7.14476 18.5611 6.99558 18.5611H4.62182V20.0011H6.65245C6.7256 20.0009 6.79808 20.0153 6.86567 20.0432C6.93325 20.0712 6.99462 20.1124 7.04621 20.1642L8.53682 21.6211H10.365C10.5141 21.6211 10.6572 21.6804 10.7627 21.7859C10.8682 21.8914 10.9275 22.0344 10.9275 22.1836C10.9275 22.3328 10.8682 22.4759 10.7627 22.5814C10.6572 22.6868 10.5141 22.7461 10.365 22.7461H8.30621C8.23304 22.7462 8.16058 22.732 8.09299 22.704C8.02541 22.6759 7.96404 22.6349 7.91245 22.583L6.42182 21.1261H4.62182V23.6461L14.398 29.288L24.1743 23.6461V21.1261H22.3743L20.8837 22.583C20.8321 22.6349 20.7708 22.6759 20.7032 22.704C20.6356 22.732 20.5632 22.7462 20.49 22.7461H18.4312C18.2821 22.7461 18.1389 22.6868 18.0334 22.5814C17.928 22.4759 17.8687 22.3328 17.8687 22.1836C17.8687 22.0344 17.928 21.8914 18.0334 21.7859C18.1389 21.6804 18.2821 21.6211 18.4312 21.6211H20.2593L21.75 20.1642C21.8016 20.1124 21.8629 20.0712 21.9304 20.0432C21.9981 20.0153 22.0706 20.0009 22.1437 20.0011H24.1743V18.5611H21.8006C21.6514 18.5611 21.5083 18.5018 21.4028 18.3964C21.2973 18.2909 21.238 18.1478 21.238 17.9986C21.238 17.8494 21.2973 17.7064 21.4028 17.6009C21.5083 17.4954 21.6514 17.4361 21.8006 17.4361H24.1743V15.9961H22.1437C22.0706 15.9962 21.9981 15.982 21.9306 15.954C21.8629 15.9259 21.8016 15.8849 21.75 15.833L20.2593 14.3761H18.4312C18.2821 14.3761 18.1389 14.3168 18.0334 14.2114C17.928 14.1059 17.8687 13.9628 17.8687 13.8136C17.8687 13.6644 17.928 13.5214 18.0334 13.4159C18.1389 13.3104 18.2821 13.2511 18.4312 13.2511H20.49C20.5632 13.2509 20.6356 13.2653 20.7032 13.2932C20.7708 13.3212 20.8321 13.3624 20.8837 13.4142L22.3743 14.8711H24.1743V12.3511L14.398 6.70924L4.62182 12.3511ZM18.4537 17.633C18.4902 17.6754 18.5204 17.7228 18.5437 17.7736C18.5858 17.8705 18.5996 17.9774 18.5838 18.0818C18.5678 18.1864 18.5227 18.2842 18.4537 18.3642L14.865 23.753C14.8132 23.8292 14.7436 23.8916 14.6623 23.9347C14.5809 23.9779 14.4902 24.0005 14.398 24.0005C14.306 24.0005 14.2153 23.9779 14.1339 23.9347C14.0524 23.8916 13.983 23.8292 13.9312 23.753L10.3425 18.3642C10.2734 18.2842 10.2284 18.1864 10.2125 18.0818C10.1965 17.9774 10.2104 17.8705 10.2525 17.7736C10.2758 17.7228 10.3061 17.6754 10.3425 17.633L13.9312 12.2442C13.985 12.171 14.0553 12.1115 14.1364 12.0704C14.2176 12.0294 14.3072 12.008 14.398 12.008C14.489 12.008 14.5786 12.0294 14.6598 12.0704C14.7408 12.1115 14.8111 12.171 14.865 12.2442L18.4537 17.633ZM14.623 20.1024L16.4906 19.2868L14.398 22.4255L12.3056 19.2868L14.173 20.1024C14.2443 20.132 14.3209 20.1474 14.398 20.1474C14.4753 20.1474 14.5518 20.132 14.623 20.1024ZM14.398 13.5718L17.188 17.7511L14.398 18.9718L11.6081 17.7511L14.398 13.5718Z" fill="url(#paint0_linear_50_2)"/>
<path d="M41.448 23.208C40.552 23.208 39.7653 22.9893 39.088 22.552C38.416 22.1147 37.8933 21.528 37.52 20.792C37.1467 20.0507 36.96 19.2293 36.96 18.328V11.8H38.912V18.328C38.912 18.8613 39.0107 19.352 39.208 19.8C39.4107 20.2427 39.6987 20.5973 40.072 20.864C40.4507 21.1253 40.9093 21.256 41.448 21.256C41.992 21.256 42.4507 21.1253 42.824 20.864C43.1973 20.5973 43.48 20.2427 43.672 19.8C43.8693 19.352 43.968 18.8613 43.968 18.328V11.8H45.92V18.328C45.92 19.0053 45.8133 19.64 45.6 20.232C45.3867 20.8187 45.0827 21.336 44.688 21.784C44.2933 22.232 43.8213 22.5813 43.272 22.832C42.728 23.0827 42.12 23.208 41.448 23.208ZM47.6475 23V11.8H51.9435C52.5515 11.8 53.1008 11.952 53.5915 12.256C54.0822 12.56 54.4715 12.968 54.7595 13.48C55.0475 13.9867 55.1915 14.5493 55.1915 15.168C55.1915 15.6747 55.0982 16.1413 54.9115 16.568C54.7302 16.9893 54.4742 17.3547 54.1435 17.664C53.8182 17.9733 53.4422 18.208 53.0155 18.368L55.6955 23H53.4475L50.8555 18.544H49.5995V23H47.6475ZM49.5995 16.592H51.7195C51.9968 16.592 52.2502 16.5227 52.4795 16.384C52.7088 16.2453 52.8928 16.0587 53.0315 15.824C53.1702 15.5893 53.2395 15.328 53.2395 15.04C53.2395 14.7467 53.1702 14.4827 53.0315 14.248C52.8928 14.0133 52.7088 13.8267 52.4795 13.688C52.2502 13.5493 51.9968 13.48 51.7195 13.48H49.5995V16.592ZM57.2256 23V11.8H64.2496V13.752H59.1776V16.024H63.2016V17.976H59.1776V21.048H64.2496V23H57.2256ZM66.0538 23V11.8H68.1658L72.8938 19.472V11.8H74.8458V23H72.7418L68.0058 15.328V23H66.0538ZM76.7725 23V11.8H83.7965V13.752H78.7245V16.024H82.7485V17.976H78.7245V21.048H83.7965V23H76.7725ZM85.6006 23V11.8H92.2166V13.752H87.5526V16.024H91.4486V17.976H87.5526V23H85.6006ZM101.815 11.8V13.752H98.391V23H96.439V13.752H93.015V11.8H101.815ZM103.653 23V11.8H105.605V23H103.653Z" fill="white"/>
</g>
</g>
<defs>
<linearGradient id="paint0_linear_50_2" x1="0.684326" y1="17.9993" x2="28.1119" y2="17.9993" gradientUnits="userSpaceOnUse">
<stop stop-color="#E018FF"/>
<stop offset="1" stop-color="#823FFF"/>
</linearGradient>
<clipPath id="clip0_50_2">
<rect width="125" height="36" fill="white"/>
</clipPath>
<clipPath id="clip1_50_2">
<rect width="125" height="36" fill="white"/>
</clipPath>
</defs>
</svg>
